<svg xmlns="http://www.w3.org/2000/svg" width="48" height="48" viewBox="0 0 48 48">
  <!-- Fuego Oscuro: volcanic vermillion, lava seams, flame peaks -->
  <defs>
    <linearGradient id="bg_f" x1="0" y1="0" x2="1" y2="1">
      <stop offset="0%" stop-color="#1a0604"/>
      <stop offset="100%" stop-color="#2a0c08"/>
    </linearGradient>
    <linearGradient id="bd_f" x1="0" y1="0" x2="1" y2="1">
      <stop offset="0%" stop-color="#ff6644"/>
      <stop offset="100%" stop-color="#c83c23"/>
    </linearGradient>
  </defs>
  <rect width="48" height="48" fill="url(#bg_f)"/>
  <rect x="1.5" y="1.5" width="45" height="45" fill="none" stroke="url(#bd_f)" stroke-width="2"/>
  <rect x="4" y="4" width="40" height="40" fill="none" stroke="#6b1e12" stroke-width="0.8"/>
  <!-- flame zigzag on edges -->
  <path d="M14 2 L17 5 L20 2 L23 5 L26 2 L29 5 L32 2" fill="none" stroke="#ff8866" stroke-width="1" opacity="0.7"/>
  <path d="M14 46 L17 43 L20 46 L23 43 L26 46 L29 43 L32 46" fill="none" stroke="#c83c23" stroke-width="1" opacity="0.7"/>
  <path d="M2 14 L5 17 L2 20 L5 23 L2 26 L5 29 L2 32" fill="none" stroke="#ff8866" stroke-width="1" opacity="0.7"/>
  <path d="M46 14 L43 17 L46 20 L43 23 L46 26 L43 29 L46 32" fill="none" stroke="#c83c23" stroke-width="1" opacity="0.7"/>
  <!-- corner ember blocks -->
  <rect x="1" y="1" width="8" height="8" fill="#e85540" opacity="0.85"/>
  <rect x="39" y="1" width="8" height="8" fill="#c83c23" opacity="0.85"/>
  <rect x="1" y="39" width="8" height="8" fill="#c83c23" opacity="0.85"/>
  <rect x="39" y="39" width="8" height="8" fill="#e85540" opacity="0.85"/>
  <rect x="3" y="3" width="4" height="4" fill="#ff8866" opacity="0.3"/>
  <rect x="41" y="3" width="4" height="4" fill="#ffc4b5" opacity="0.3"/>
  <rect x="3" y="41" width="4" height="4" fill="#ffc4b5" opacity="0.3"/>
  <rect x="41" y="41" width="4" height="4" fill="#ff8866" opacity="0.3"/>
</svg>
